<svg version="1.1" id="Layer_1" xmlns="http://www.w3.org/2000/svg" x="0" y="0" viewBox="0 0 50 1584" style="enable-background:new 0 0 50 1584" xml:space="preserve"><style>.st0{fill:#fff;fill-opacity:.1}.st2{fill:#616161}.st3{font-family:&apos;Roboto-Regular&apos;}.st4{font-size:22px}</style><path class="st0" d="M0 0v.3l25 13.2L50 .3V0H0z"/><path class="st0" d="m25 825 25-13.2V10L25 23.2 0 10v801.8L25 825zm0 713 25-13.2V832l-25 13.2L0 832v692.8l25 13.2z"/><path d="m25 1561 25-13.2V1535l-25 13.2L0 1535v12.8l25 13.2z" style="fill:#fff;fill-opacity:8.000000e-02"/><text transform="rotate(-90 622.251 590.059)" class="st2 st3 st4">2023</text><text transform="rotate(-90 250.751 220.559)" class="st2 st3 st4">2023</text><path d="m25 1584 25-13.2V1558l-25 13.2L0 1558v12.8l25 13.2z" style="fill:#fff;fill-opacity:5.000000e-02"/></svg>