<svg version="1.1" id="Layer_1" xmlns="http://www.w3.org/2000/svg" x="0" y="0" viewBox="0 0 50 1584" style="enable-background:new 0 0 50 1584" xml:space="preserve"><style>.st0{fill:#fff;fill-opacity:.1}</style><path class="st0" d="M0 0v.3l25 13.2L50 .3V0H0z"/><path class="st0" d="m25 825 25-13.2V10L25 23.2 0 10v801.8L25 825zm0 713 25-13.2V832l-25 13.2L0 832v692.8l25 13.2z"/><path d="M21.6 1200c1.2 0 2.3.5 3.2 1.6.3.3.6.7.8 1.1l3.4 4.7v-7.4h3.1v11.9H28l-5.7-7.9h-1.1c-.9 0-1.3.4-1.3 1.3v6.2h-3.1v-7c0-1.5.3-2.7 1-3.4.7-.7 1.8-1 3.4-1h.4zm6.4-14.5c1.5 0 2.7.3 3.4 1 .7.7 1 1.8 1 3.4v4.2c0 1.5-.3 2.7-1 3.4s-1.8 1-3.4 1h-7c-1.5 0-2.7-.3-3.4-1s-1-1.8-1-3.4v-4.2c0-1.5.3-2.7 1-3.4.7-.7 1.8-1 3.4-1h7zm-7 3.9c-.9 0-1.3.4-1.3 1.3v2.4c0 .9.4 1.3 1.3 1.3h7c.9 0 1.3-.4 1.3-1.3v-2.4c0-.9-.4-1.3-1.3-1.3h-7zm.6-17.1c1.2 0 2.3.5 3.2 1.6.3.3.6.7.8 1.1l3.4 4.7v-7.4h3.1v11.9H28l-5.7-7.9h-1.1c-.9 0-1.3.4-1.3 1.3v6.2h-3.1v-7c0-1.5.3-2.7 1-3.4.7-.7 1.8-1 3.4-1h.4zm10.8-9.3c0 2.4-.1 5.2-.4 8.1h-3c.2-3.2.3-5.7.3-7.3 0-.3-.1-.6-.3-.8s-.5-.3-.8-.3h-.9c-.9 0-1.3.4-1.3 1.3v4.6h-3v-4.2c0-.9-.4-1.3-1.3-1.3h-.4c-.9 0-1.3.4-1.3 1.3v6.4h-3.1v-7.5c0-1.4.3-2.5 1-3.2s1.6-1 3-1c.9 0 1.6.2 2.1.6.5.4.9.9 1.2 1.6.3-1.2 1.1-2 2.4-2.4.5-.1 1-.2 1.6-.2h.2c1.4 0 2.5.3 3.2 1s.8 1.9.8 3.3zM19.6 459c1.2 0 2.3.5 3.2 1.6.3.3.6.7.8 1.1l3.4 4.7V459h3.1v11.9H26l-5.7-7.9h-1.1c-.9 0-1.3.4-1.3 1.3v6.2h-3.1v-7c0-1.5.3-2.7 1-3.4.7-.7 1.8-1 3.4-1h.4zm6.4-14.5c1.5 0 2.7.3 3.4 1 .7.7 1 1.8 1 3.4v4.2c0 1.5-.3 2.7-1 3.4s-1.8 1-3.4 1h-7c-1.5 0-2.7-.3-3.4-1s-1-1.8-1-3.4v-4.2c0-1.5.3-2.7 1-3.4.7-.7 1.8-1 3.4-1h7zm-7 3.9c-.9 0-1.3.4-1.3 1.3v2.4c0 .9.4 1.3 1.3 1.3h7c.9 0 1.3-.4 1.3-1.3v-2.4c0-.9-.4-1.3-1.3-1.3h-7zm.6-17.1c1.2 0 2.3.5 3.2 1.6.3.3.6.7.8 1.1l3.4 4.7v-7.4h3.1v11.9H26l-5.7-7.9h-1.1c-.9 0-1.3.4-1.3 1.3v6.2h-3.1v-7c0-1.5.3-2.7 1-3.4.7-.7 1.8-1 3.4-1h.4zm10.8-9.3c0 2.4-.1 5.2-.4 8.1h-3c.2-3.2.3-5.7.3-7.3 0-.3-.1-.6-.3-.8s-.5-.3-.8-.3h-.9c-.9 0-1.3.4-1.3 1.3v4.6h-3v-4.2c0-.9-.4-1.3-1.3-1.3h-.4c-.9 0-1.3.4-1.3 1.3v6.4h-3.1v-7.5c0-1.4.3-2.5 1-3.2s1.6-1 3-1c.9 0 1.6.2 2.1.6.5.4.9.9 1.2 1.6.3-1.2 1.1-2 2.4-2.4.5-.1 1-.2 1.6-.2h.2c1.4 0 2.5.3 3.2 1s.8 1.9.8 3.3z" style="fill:#616161"/><path d="m25 1561 25-13.2V1535l-25 13.2L0 1535v12.8l25 13.2z" style="fill:#fff;fill-opacity:8.000000e-02"/><path d="m25 1584 25-13.2V1558l-25 13.2L0 1558v12.8l25 13.2z" style="fill:#fff;fill-opacity:5.000000e-02"/></svg>